:SAMPLES-PER-SECOND 30
:FULLY-SPECIFIED
:DEGREES
118
root  -12.0158 39.4769 -12.8535 2.58419 65.8562 8.55076
RightUpLeg  -13.3737 -3.61431 -11.6594
RightLeg  60.8731 -0.314 -1.16607
RightFoot  6.67932 -0.555195 3.80649
RightToes  0.00048216 0.542163 -0.142577
Spine  17.5277 -2.06008 -7.16404
Spine1  14.1546 -4.53546 3.68701
HEad  -3.57922 10.1958 -11.4858
LeftShoulder1  9.74788 -17.3173 -40.5195
LeftArm  6.53408 -44.515 -39.7065
LeftForeArm  -3.29085 -23.8268 -5.25314
LeftHand  -0.25398 0.0180481 5.50724
RightShoulder  6.9266 12.8266 36.4129
RightArm  -10.177 -7.59966 32.7136
RightForeArm  7.79683 77.1002 73.5114
RightHand  -7.86622 16.8092 -39.9267
LeftUpLeg  -11.1093 28.634 -9.28093
LeftLeg  19.6993 8.81422 3.3845
LeftFoot  -5.78398 -0.4487 9.93089
LeftToes  1.06246e-005 4.65855e-005 -8.185e-006
119
root  -11.0444 39.605 -12.7358 2.59955 66.8742 8.27594
RightUpLeg  -16.8195 -2.5703 -10.5252
RightLeg  59.2123 0.139821 -0.214211
RightFoot  5.25312 -0.734235 5.25934
RightToes  0.00048216 0.542163 -0.142577
Spine  17.9004 -2.06405 -6.92849
Spine1  14.1748 -4.67151 3.93764
HEad  -3.23306 9.58085 -10.9371
LeftShoulder1  9.82671 -17.4909 -40.5072
LeftArm  6.89154 -45.2522 -40.2137
LeftForeArm  -3.24729 -23.6559 -5.22278
LeftHand  -0.25398 0.0180481 5.50724
RightShoulder  6.89071 12.7628 36.3604
RightArm  -10.9041 -6.84062 32.5905
RightForeArm  5.47258 76.9633 71.6276
RightHand  -7.81985 16.733 -39.8372
LeftUpLeg  -8.89883 26.959 -8.37263
LeftLeg  19.0107 9.62667 2.55112
LeftFoot  -6.95901 -0.310434 9.19662
LeftToes  1.06246e-005 4.65855e-005 -8.185e-006
120
root  -10.0641 39.7498 -12.5832 2.68396 67.5856 8.14928
RightUpLeg  -19.4772 -1.63983 -9.25062
RightLeg  55.004 -0.858793 -1.70324
RightFoot  4.16593 -0.514432 3.97199
RightToes  0.00048216 0.542163 -0.142577
Spine  18.2283 -2.00992 -6.86261
Spine1  13.9113 -4.73092 4.2758
HEad  -2.88411 9.19776 -10.1942
LeftShoulder1  9.85533 -17.6424 -40.3165
LeftArm  7.16555 -45.7486 -40.8088
LeftForeArm  -3.18364 -23.3014 -5.16907
LeftHand  -0.25398 0.0180481 5.50724
RightShoulder  6.83797 12.6558 36.3164
RightArm  -11.7104 -6.27072 32.4411
RightForeArm  4.95376 76.9555 71.6376
RightHand  -7.73695 16.5436 -39.7635
LeftUpLeg  -6.41594 24.7671 -7.28988
LeftLeg  17.9429 11.0228 1.33212
LeftFoot  -7.72181 -0.225486 8.60346
LeftToes  1.06246e-005 4.65855e-005 -8.185e-006
121
root  -9.08265 39.883 -12.4163 3.11756 68.4578 8.36731
RightUpLeg  -21.0217 -1.1015 -8.20125
RightLeg  48.1498 -2.20662 -2.9845
RightFoot  2.72429 -0.355516 3.0534
RightToes  0.00048216 0.542163 -0.142577
Spine  18.4528 -2.24838 -6.96293
Spine1  13.535 -5.0972 4.6255
HEad  -2.75134 9.20316 -9.61565
LeftShoulder1  9.81883 -17.6562 -40.1244
LeftArm  6.86616 -45.9971 -40.8954
LeftForeArm  -2.98161 -23.1682 -5.14865
LeftHand  -0.25398 0.0180481 5.50724
RightShoulder  6.7767 12.5793 36.1413
RightArm  -12.1446 -5.48064 32.5136
RightForeArm  4.23872 76.9175 71.1841
RightHand  -7.56552 16.1879 -39.5455
LeftUpLeg  -4.13904 21.9845 -6.6221
LeftLeg  16.8533 12.8197 0.417415
LeftFoot  -8.31777 -0.159344 7.91301
LeftToes  1.06246e-005 4.65855e-005 -8.185e-006
122
root  -8.09024 39.9041 -12.219 4.22846 69.2906 9.25419
RightUpLeg  -21.5743 -1.36384 -7.54153
RightLeg  39.2105 -2.86622 -2.78706
RightFoot  1.32885 -0.461937 4.24084
RightToes  0.00048216 0.542163 -0.142577
Spine  18.3714 -2.57751 -7.29059
Spine1  13.3327 -5.50415 4.67306
HEad  -2.85606 9.24279 -9.3633
LeftShoulder1  9.7824 -17.6098 -40.0582
LeftArm  6.37633 -46.287 -40.6631
LeftForeArm  -2.85684 -23.0903 -5.1379
LeftHand  -0.25398 0.0180481 5.50724
RightShoulder  6.71765 12.561 35.8292
RightArm  -12.2326 -4.43679 32.6574
RightForeArm  2.04529 76.7551 69.2079
RightHand  -7.3019 15.6415 -39.1948
LeftUpLeg  -2.37184 19.0545 -6.51674
LeftLeg  16.4836 14.8244 -0.0301654
LeftFoot  -9.46449 -0.0588701 7.03234
LeftToes  1.06246e-005 4.65855e-005 -8.185e-006
